<mxfile host="app.diagrams.net" modified="2022-06-15T09:25:33.120Z" agent="5.0 (Macintosh; Intel Mac OS X 11_0_0) AppleWebKit/537.36 (KHTML, like Gecko) Chrome/86.0.4240.111 Safari/537.36" etag="HxgVT4PCVu9w38Ebrb5V" version="16.2.4" type="github" pages="2">
  <diagram id="ZyxUpkegvANAHVnIDFuy" name="整体架构">
    <mxGraphModel dx="1051" dy="556" grid="1" gridSize="10" guides="1" tooltips="0" connect="1" arrows="1" fold="1" page="1" pageScale="1" pageWidth="827" pageHeight="1169" math="0" shadow="0">
      <root>
        <mxCell id="0" />
        <mxCell id="1" parent="0" />
        <mxCell id="SFZcGOY2Y97-QPst4IyD-20" value="" style="rounded=0;whiteSpace=wrap;html=1;" parent="1" vertex="1">
          <mxGeometry x="300" y="60" width="450" height="300" as="geometry" />
        </mxCell>
        <mxCell id="SFZcGOY2Y97-QPst4IyD-4" value="" style="rounded=0;whiteSpace=wrap;html=1;" parent="1" vertex="1">
          <mxGeometry x="60" y="60" width="130" height="300" as="geometry" />
        </mxCell>
        <mxCell id="SFZcGOY2Y97-QPst4IyD-7" value="" style="edgeStyle=orthogonalEdgeStyle;rounded=0;orthogonalLoop=1;jettySize=auto;html=1;" parent="1" source="SFZcGOY2Y97-QPst4IyD-1" target="SFZcGOY2Y97-QPst4IyD-2" edge="1">
          <mxGeometry relative="1" as="geometry" />
        </mxCell>
        <mxCell id="SFZcGOY2Y97-QPst4IyD-1" value="" style="sketch=0;html=1;aspect=fixed;strokeColor=none;shadow=0;align=center;verticalAlign=top;fillColor=#3B8DF1;shape=mxgraph.gcp2.segments" parent="1" vertex="1">
          <mxGeometry x="115" y="70" width="50" height="50" as="geometry" />
        </mxCell>
        <mxCell id="SFZcGOY2Y97-QPst4IyD-8" value="" style="edgeStyle=orthogonalEdgeStyle;rounded=0;orthogonalLoop=1;jettySize=auto;html=1;" parent="1" source="SFZcGOY2Y97-QPst4IyD-2" target="SFZcGOY2Y97-QPst4IyD-3" edge="1">
          <mxGeometry relative="1" as="geometry" />
        </mxCell>
        <mxCell id="SFZcGOY2Y97-QPst4IyD-2" value="" style="sketch=0;html=1;aspect=fixed;strokeColor=none;shadow=0;align=center;verticalAlign=top;fillColor=#3B8DF1;shape=mxgraph.gcp2.folders" parent="1" vertex="1">
          <mxGeometry x="110" y="170" width="60" height="51" as="geometry" />
        </mxCell>
        <mxCell id="SFZcGOY2Y97-QPst4IyD-3" value="" style="html=1;whiteSpace=wrap;shape=isoCube2;backgroundOutline=1;isoAngle=15;" parent="1" vertex="1">
          <mxGeometry x="110" y="280" width="60" height="60" as="geometry" />
        </mxCell>
        <mxCell id="SFZcGOY2Y97-QPst4IyD-5" value="" style="endArrow=none;dashed=1;html=1;rounded=0;entryX=0.998;entryY=0.633;entryDx=0;entryDy=0;entryPerimeter=0;" parent="1" target="SFZcGOY2Y97-QPst4IyD-4" edge="1">
          <mxGeometry width="50" height="50" relative="1" as="geometry">
            <mxPoint x="60" y="250" as="sourcePoint" />
            <mxPoint x="10" y="230" as="targetPoint" />
          </mxGeometry>
        </mxCell>
        <mxCell id="SFZcGOY2Y97-QPst4IyD-10" value="" style="rounded=1;whiteSpace=wrap;html=1;fillColor=#f8cecc;strokeColor=#b85450;" parent="1" vertex="1">
          <mxGeometry x="340" y="271" width="120" height="60" as="geometry" />
        </mxCell>
        <mxCell id="SFZcGOY2Y97-QPst4IyD-14" value="" style="rounded=1;whiteSpace=wrap;html=1;fillColor=#dae8fc;strokeColor=#6c8ebf;" parent="1" vertex="1">
          <mxGeometry x="590" y="270" width="120" height="60" as="geometry" />
        </mxCell>
        <mxCell id="SFZcGOY2Y97-QPst4IyD-15" value="" style="rounded=1;whiteSpace=wrap;html=1;fillColor=#dae8fc;strokeColor=#6c8ebf;" parent="1" vertex="1">
          <mxGeometry x="600" y="280" width="120" height="60" as="geometry" />
        </mxCell>
        <mxCell id="SFZcGOY2Y97-QPst4IyD-16" value="&lt;font style=&quot;font-size: 20px&quot;&gt;storage&lt;/font&gt;" style="rounded=1;whiteSpace=wrap;html=1;fillColor=#dae8fc;strokeColor=#6c8ebf;" parent="1" vertex="1">
          <mxGeometry x="610" y="290" width="120" height="60" as="geometry" />
        </mxCell>
        <mxCell id="SFZcGOY2Y97-QPst4IyD-17" value="" style="rounded=1;whiteSpace=wrap;html=1;fillColor=#f8cecc;strokeColor=#b85450;" parent="1" vertex="1">
          <mxGeometry x="350" y="281" width="120" height="60" as="geometry" />
        </mxCell>
        <mxCell id="SFZcGOY2Y97-QPst4IyD-18" value="&lt;font style=&quot;font-size: 20px&quot;&gt;meta&lt;/font&gt;" style="rounded=1;whiteSpace=wrap;html=1;fillColor=#f8cecc;strokeColor=#b85450;" parent="1" vertex="1">
          <mxGeometry x="360" y="291" width="120" height="60" as="geometry" />
        </mxCell>
        <object label="&lt;font style=&quot;font-size: 24px&quot;&gt;mgmtd&lt;/font&gt;" id="SFZcGOY2Y97-QPst4IyD-19">
          <mxCell style="rounded=1;whiteSpace=wrap;html=1;fillColor=#d5e8d4;strokeColor=#82b366;" parent="1" vertex="1">
            <mxGeometry x="460" y="110" width="120" height="60" as="geometry" />
          </mxCell>
        </object>
        <mxCell id="SFZcGOY2Y97-QPst4IyD-22" value="" style="endArrow=classic;html=1;rounded=0;exitX=1.006;exitY=0.853;exitDx=0;exitDy=0;exitPerimeter=0;entryX=-0.004;entryY=0.853;entryDx=0;entryDy=0;entryPerimeter=0;" parent="1" source="SFZcGOY2Y97-QPst4IyD-4" target="SFZcGOY2Y97-QPst4IyD-20" edge="1">
          <mxGeometry width="50" height="50" relative="1" as="geometry">
            <mxPoint x="230" y="440" as="sourcePoint" />
            <mxPoint x="280" y="390" as="targetPoint" />
          </mxGeometry>
        </mxCell>
        <mxCell id="SFZcGOY2Y97-QPst4IyD-23" value="&lt;font style=&quot;font-size: 19px&quot;&gt;APP&lt;/font&gt;" style="text;html=1;strokeColor=none;fillColor=none;align=center;verticalAlign=middle;whiteSpace=wrap;rounded=0;fontSize=24;" parent="1" vertex="1">
          <mxGeometry x="60" y="80" width="60" height="30" as="geometry" />
        </mxCell>
        <mxCell id="SFZcGOY2Y97-QPst4IyD-24" value="&lt;font style=&quot;font-size: 14px&quot;&gt;userspace&lt;/font&gt;" style="text;strokeColor=none;fillColor=none;html=1;fontSize=24;fontStyle=1;verticalAlign=middle;align=center;" parent="1" vertex="1">
          <mxGeometry x="50" y="210" width="100" height="40" as="geometry" />
        </mxCell>
        <mxCell id="SFZcGOY2Y97-QPst4IyD-25" value="&lt;span style=&quot;font-size: 14px&quot;&gt;kernel&lt;/span&gt;" style="text;strokeColor=none;fillColor=none;html=1;fontSize=24;fontStyle=1;verticalAlign=middle;align=center;" parent="1" vertex="1">
          <mxGeometry x="50" y="240" width="100" height="40" as="geometry" />
        </mxCell>
        <mxCell id="SFZcGOY2Y97-QPst4IyD-32" value="" style="endArrow=classic;startArrow=classic;html=1;rounded=0;fontSize=20;exitX=0.801;exitY=0.006;exitDx=0;exitDy=0;exitPerimeter=0;entryX=0.25;entryY=1;entryDx=0;entryDy=0;" parent="1" source="SFZcGOY2Y97-QPst4IyD-10" target="SFZcGOY2Y97-QPst4IyD-19" edge="1">
          <mxGeometry width="50" height="50" relative="1" as="geometry">
            <mxPoint x="430" y="240" as="sourcePoint" />
            <mxPoint x="480" y="190" as="targetPoint" />
          </mxGeometry>
        </mxCell>
        <mxCell id="SFZcGOY2Y97-QPst4IyD-33" value="" style="endArrow=classic;startArrow=classic;html=1;rounded=0;fontSize=20;exitX=0.25;exitY=0;exitDx=0;exitDy=0;entryX=0.75;entryY=1;entryDx=0;entryDy=0;" parent="1" source="SFZcGOY2Y97-QPst4IyD-14" target="SFZcGOY2Y97-QPst4IyD-19" edge="1">
          <mxGeometry width="50" height="50" relative="1" as="geometry">
            <mxPoint x="446.1200000000001" y="281.36" as="sourcePoint" />
            <mxPoint x="500" y="180" as="targetPoint" />
          </mxGeometry>
        </mxCell>
        <mxCell id="SFZcGOY2Y97-QPst4IyD-34" value="" style="endArrow=classic;startArrow=classic;html=1;rounded=0;fontSize=20;exitX=-0.016;exitY=0.851;exitDx=0;exitDy=0;entryX=1;entryY=0.5;entryDx=0;entryDy=0;exitPerimeter=0;" parent="1" source="SFZcGOY2Y97-QPst4IyD-14" target="SFZcGOY2Y97-QPst4IyD-18" edge="1">
          <mxGeometry width="50" height="50" relative="1" as="geometry">
            <mxPoint x="630" y="280" as="sourcePoint" />
            <mxPoint x="560" y="180" as="targetPoint" />
          </mxGeometry>
        </mxCell>
      </root>
    </mxGraphModel>
  </diagram>
  <diagram id="dHRAwBs9wtUvgNsRhiDv" name="meta">
    <mxGraphModel dx="788" dy="417" grid="1" gridSize="10" guides="1" tooltips="1" connect="1" arrows="1" fold="1" page="1" pageScale="1" pageWidth="827" pageHeight="1169" math="0" shadow="0">
      <root>
        <mxCell id="VlDWiiyWO00nPTOMM3zz-0" />
        <mxCell id="VlDWiiyWO00nPTOMM3zz-1" parent="VlDWiiyWO00nPTOMM3zz-0" />
        <mxCell id="Va5eY63xYlOc4YLmr7po-0" value="" style="rounded=1;whiteSpace=wrap;html=1;" vertex="1" parent="VlDWiiyWO00nPTOMM3zz-1">
          <mxGeometry x="220" y="110" width="450" height="170" as="geometry" />
        </mxCell>
        <mxCell id="Va5eY63xYlOc4YLmr7po-14" value="" style="edgeStyle=orthogonalEdgeStyle;rounded=0;orthogonalLoop=1;jettySize=auto;html=1;" edge="1" parent="VlDWiiyWO00nPTOMM3zz-1" source="Va5eY63xYlOc4YLmr7po-11" target="Va5eY63xYlOc4YLmr7po-13">
          <mxGeometry relative="1" as="geometry">
            <Array as="points">
              <mxPoint x="490" y="155" />
              <mxPoint x="490" y="155" />
            </Array>
          </mxGeometry>
        </mxCell>
        <mxCell id="Va5eY63xYlOc4YLmr7po-11" value="" style="rounded=1;whiteSpace=wrap;html=1;" vertex="1" parent="VlDWiiyWO00nPTOMM3zz-1">
          <mxGeometry x="356" y="145" width="115" height="50" as="geometry" />
        </mxCell>
        <mxCell id="Va5eY63xYlOc4YLmr7po-18" value="" style="edgeStyle=orthogonalEdgeStyle;rounded=0;orthogonalLoop=1;jettySize=auto;html=1;" edge="1" parent="VlDWiiyWO00nPTOMM3zz-1" source="-qe9VXC1M492ilnyxzy2-0">
          <mxGeometry relative="1" as="geometry">
            <mxPoint x="210" y="200" as="targetPoint" />
          </mxGeometry>
        </mxCell>
        <mxCell id="-qe9VXC1M492ilnyxzy2-0" value="" style="html=1;whiteSpace=wrap;shape=isoCube2;backgroundOutline=1;isoAngle=15;" vertex="1" parent="VlDWiiyWO00nPTOMM3zz-1">
          <mxGeometry x="100" y="170" width="60" height="60" as="geometry" />
        </mxCell>
        <mxCell id="Va5eY63xYlOc4YLmr7po-12" value="" style="edgeStyle=orthogonalEdgeStyle;rounded=0;orthogonalLoop=1;jettySize=auto;html=1;" edge="1" parent="VlDWiiyWO00nPTOMM3zz-1" source="Va5eY63xYlOc4YLmr7po-1">
          <mxGeometry relative="1" as="geometry">
            <mxPoint x="350" y="170" as="targetPoint" />
          </mxGeometry>
        </mxCell>
        <mxCell id="Va5eY63xYlOc4YLmr7po-1" value="TCP" style="rounded=1;whiteSpace=wrap;html=1;" vertex="1" parent="VlDWiiyWO00nPTOMM3zz-1">
          <mxGeometry x="260" y="155" width="50" height="30" as="geometry" />
        </mxCell>
        <mxCell id="Va5eY63xYlOc4YLmr7po-2" value="UDP" style="rounded=1;whiteSpace=wrap;html=1;" vertex="1" parent="VlDWiiyWO00nPTOMM3zz-1">
          <mxGeometry x="260" y="210" width="50" height="30" as="geometry" />
        </mxCell>
        <mxCell id="Va5eY63xYlOc4YLmr7po-3" value="" style="ellipse;whiteSpace=wrap;html=1;aspect=fixed;fillColor=#dae8fc;strokeColor=#6c8ebf;" vertex="1" parent="VlDWiiyWO00nPTOMM3zz-1">
          <mxGeometry x="359" y="155" width="30" height="30" as="geometry" />
        </mxCell>
        <mxCell id="Va5eY63xYlOc4YLmr7po-4" value="" style="ellipse;whiteSpace=wrap;html=1;aspect=fixed;fillColor=#dae8fc;strokeColor=#6c8ebf;" vertex="1" parent="VlDWiiyWO00nPTOMM3zz-1">
          <mxGeometry x="369" y="155" width="30" height="30" as="geometry" />
        </mxCell>
        <mxCell id="Va5eY63xYlOc4YLmr7po-5" value="" style="ellipse;whiteSpace=wrap;html=1;aspect=fixed;fillColor=#dae8fc;strokeColor=#6c8ebf;" vertex="1" parent="VlDWiiyWO00nPTOMM3zz-1">
          <mxGeometry x="379" y="155" width="30" height="30" as="geometry" />
        </mxCell>
        <mxCell id="Va5eY63xYlOc4YLmr7po-6" value="" style="ellipse;whiteSpace=wrap;html=1;aspect=fixed;fillColor=#dae8fc;strokeColor=#6c8ebf;" vertex="1" parent="VlDWiiyWO00nPTOMM3zz-1">
          <mxGeometry x="389" y="155" width="30" height="30" as="geometry" />
        </mxCell>
        <mxCell id="Va5eY63xYlOc4YLmr7po-7" value="" style="ellipse;whiteSpace=wrap;html=1;aspect=fixed;fillColor=#dae8fc;strokeColor=#6c8ebf;" vertex="1" parent="VlDWiiyWO00nPTOMM3zz-1">
          <mxGeometry x="399" y="155" width="30" height="30" as="geometry" />
        </mxCell>
        <mxCell id="Va5eY63xYlOc4YLmr7po-8" value="" style="ellipse;whiteSpace=wrap;html=1;aspect=fixed;fillColor=#dae8fc;strokeColor=#6c8ebf;" vertex="1" parent="VlDWiiyWO00nPTOMM3zz-1">
          <mxGeometry x="409" y="155" width="30" height="30" as="geometry" />
        </mxCell>
        <mxCell id="Va5eY63xYlOc4YLmr7po-9" value="" style="ellipse;whiteSpace=wrap;html=1;aspect=fixed;fillColor=#dae8fc;strokeColor=#6c8ebf;" vertex="1" parent="VlDWiiyWO00nPTOMM3zz-1">
          <mxGeometry x="419" y="155" width="30" height="30" as="geometry" />
        </mxCell>
        <mxCell id="Va5eY63xYlOc4YLmr7po-10" value="" style="ellipse;whiteSpace=wrap;html=1;aspect=fixed;fillColor=#dae8fc;strokeColor=#6c8ebf;" vertex="1" parent="VlDWiiyWO00nPTOMM3zz-1">
          <mxGeometry x="429" y="155" width="30" height="30" as="geometry" />
        </mxCell>
        <mxCell id="Va5eY63xYlOc4YLmr7po-24" value="" style="edgeStyle=orthogonalEdgeStyle;rounded=0;orthogonalLoop=1;jettySize=auto;html=1;" edge="1" parent="VlDWiiyWO00nPTOMM3zz-1" source="Va5eY63xYlOc4YLmr7po-13">
          <mxGeometry relative="1" as="geometry">
            <mxPoint x="580" y="170" as="targetPoint" />
          </mxGeometry>
        </mxCell>
        <mxCell id="Va5eY63xYlOc4YLmr7po-13" value="&lt;span style=&quot;border-bottom: 1px dotted&quot;&gt;网络连接池&lt;/span&gt;" style="ellipse;whiteSpace=wrap;html=1;align=center;rotation=90;" vertex="1" parent="VlDWiiyWO00nPTOMM3zz-1">
          <mxGeometry x="475" y="150" width="100" height="40" as="geometry" />
        </mxCell>
        <mxCell id="Va5eY63xYlOc4YLmr7po-17" value="" style="endArrow=none;html=1;rounded=0;" edge="1" parent="VlDWiiyWO00nPTOMM3zz-1">
          <mxGeometry width="50" height="50" relative="1" as="geometry">
            <mxPoint x="580" y="280" as="sourcePoint" />
            <mxPoint x="580" y="110" as="targetPoint" />
            <Array as="points">
              <mxPoint x="580" y="200" />
            </Array>
          </mxGeometry>
        </mxCell>
        <mxCell id="Va5eY63xYlOc4YLmr7po-25" value="" style="endArrow=classic;html=1;rounded=0;" edge="1" parent="VlDWiiyWO00nPTOMM3zz-1">
          <mxGeometry width="50" height="50" relative="1" as="geometry">
            <mxPoint x="310" y="224.57999999999998" as="sourcePoint" />
            <mxPoint x="580" y="224.57999999999998" as="targetPoint" />
          </mxGeometry>
        </mxCell>
        <mxCell id="Va5eY63xYlOc4YLmr7po-27" value="关闭文件" style="rounded=1;whiteSpace=wrap;html=1;" vertex="1" parent="VlDWiiyWO00nPTOMM3zz-1">
          <mxGeometry x="590" y="125" width="70" height="25" as="geometry" />
        </mxCell>
        <mxCell id="Va5eY63xYlOc4YLmr7po-28" value="创建文件" style="rounded=1;whiteSpace=wrap;html=1;" vertex="1" parent="VlDWiiyWO00nPTOMM3zz-1">
          <mxGeometry x="590" y="157.5" width="70" height="25" as="geometry" />
        </mxCell>
        <mxCell id="Va5eY63xYlOc4YLmr7po-29" value="查找文件" style="rounded=1;whiteSpace=wrap;html=1;" vertex="1" parent="VlDWiiyWO00nPTOMM3zz-1">
          <mxGeometry x="590" y="190" width="70" height="25" as="geometry" />
        </mxCell>
        <mxCell id="Va5eY63xYlOc4YLmr7po-30" value="&lt;font style=&quot;font-size: 12px&quot;&gt;后台任务&lt;/font&gt;" style="rounded=1;whiteSpace=wrap;html=1;" vertex="1" parent="VlDWiiyWO00nPTOMM3zz-1">
          <mxGeometry x="590" y="220" width="70" height="25" as="geometry" />
        </mxCell>
        <mxCell id="oIhS2lckTRb-iWT6wFU5-0" value="" style="sketch=0;html=1;aspect=fixed;strokeColor=none;shadow=0;align=center;verticalAlign=top;fillColor=#3B8DF1;shape=mxgraph.gcp2.folders" vertex="1" parent="VlDWiiyWO00nPTOMM3zz-1">
          <mxGeometry x="389" y="240" width="36" height="30.6" as="geometry" />
        </mxCell>
        <mxCell id="oIhS2lckTRb-iWT6wFU5-1" value="/pfs.dir" style="text;html=1;strokeColor=none;fillColor=none;align=center;verticalAlign=middle;whiteSpace=wrap;rounded=0;fontSize=12;" vertex="1" parent="VlDWiiyWO00nPTOMM3zz-1">
          <mxGeometry x="319" y="240.6" width="60" height="30" as="geometry" />
        </mxCell>
        <mxCell id="oIhS2lckTRb-iWT6wFU5-2" value="" style="sketch=0;html=1;dashed=0;whitespace=wrap;fillColor=#2875E2;strokeColor=#ffffff;points=[[0.005,0.63,0],[0.1,0.2,0],[0.9,0.2,0],[0.5,0,0],[0.995,0.63,0],[0.72,0.99,0],[0.5,1,0],[0.28,0.99,0]];shape=mxgraph.kubernetes.icon;prIcon=vol;fontSize=12;" vertex="1" parent="VlDWiiyWO00nPTOMM3zz-1">
          <mxGeometry x="375" y="330" width="50" height="48" as="geometry" />
        </mxCell>
        <mxCell id="oIhS2lckTRb-iWT6wFU5-3" value="" style="endArrow=classic;html=1;rounded=0;fontSize=12;" edge="1" parent="VlDWiiyWO00nPTOMM3zz-1">
          <mxGeometry width="50" height="50" relative="1" as="geometry">
            <mxPoint x="400" y="280" as="sourcePoint" />
            <mxPoint x="400" y="320" as="targetPoint" />
          </mxGeometry>
        </mxCell>
        <mxCell id="oIhS2lckTRb-iWT6wFU5-4" value="ebs" style="text;html=1;strokeColor=none;fillColor=none;align=center;verticalAlign=middle;whiteSpace=wrap;rounded=0;fontSize=12;" vertex="1" parent="VlDWiiyWO00nPTOMM3zz-1">
          <mxGeometry x="315" y="339" width="60" height="30" as="geometry" />
        </mxCell>
      </root>
    </mxGraphModel>
  </diagram>
</mxfile>
